<svg width="80" height="92" viewBox="0 0 80 92" fill="none" xmlns="http://www.w3.org/2000/svg">
<path d="M90.0827 49.1673H82.8327V29.834C82.8327 27.2702 81.8142 24.8115 80.0014 22.9986C78.1885 21.1858 75.7298 20.1673 73.166 20.1673H53.8327V12.9173C53.8327 9.71262 52.5596 6.63918 50.2936 4.37311C48.0275 2.10705 44.954 0.833984 41.7494 0.833984C38.5447 0.833984 35.4712 2.10705 33.2051 4.37311C30.9391 6.63918 29.666 9.71262 29.666 12.9173V20.1673H10.3327C7.76892 20.1673 5.31017 21.1858 3.49732 22.9986C1.68446 24.8115 0.666016 27.2702 0.666016 29.834V48.2007H7.91602C15.166 48.2007 20.966 54.0007 20.966 61.2507C20.966 68.5007 15.166 74.3007 7.91602 74.3007H0.666016V92.6673C0.666016 95.2311 1.68446 97.6898 3.49732 99.5027C5.31017 101.316 7.76892 102.334 10.3327 102.334H28.6994V95.084C28.6994 87.834 34.4994 82.034 41.7494 82.034C48.9994 82.034 54.7993 87.834 54.7993 95.084V102.334H73.166C75.7298 102.334 78.1885 101.316 80.0014 99.5027C81.8142 97.6898 82.8327 95.2311 82.8327 92.6673V73.334H90.0827C93.2874 73.334 96.3608 72.0609 98.6269 69.7949C100.893 67.5288 102.166 64.4554 102.166 61.2507C102.166 58.046 100.893 54.9725 98.6269 52.7064C96.3608 50.4404 93.2874 49.1673 90.0827 49.1673Z" fill="#4775A6"/>
</svg>
