<svg width="107" height="74" viewBox="0 0 107 74" fill="none" xmlns="http://www.w3.org/2000/svg">
<path d="M0.495857 3.82149C1.12482 2.31539 2.32836 1.11855 3.84289 0.493095C4.58805 0.177261 5.38824 0.00973855 6.1982 0H37.1892C38.8331 0 40.4096 0.649388 41.572 1.8053C42.7344 2.96122 43.3874 4.52898 43.3874 6.16369C43.3874 7.7984 42.7344 9.36616 41.572 10.5221C40.4096 11.678 38.8331 12.3274 37.1892 12.3274H21.1359L55.7838 46.7824L76.1759 26.4422C76.7521 25.8645 77.4376 25.406 78.193 25.093C78.9483 24.7801 79.7584 24.619 80.5766 24.619C81.3949 24.619 82.205 24.7801 82.9603 25.093C83.7156 25.406 84.4012 25.8645 84.9774 26.4422L122.167 63.4244C122.748 63.9974 123.209 64.6791 123.523 65.4302C123.838 66.1813 124 66.9869 124 67.8006C124 68.6143 123.838 69.4199 123.523 70.171C123.209 70.9221 122.748 71.6038 122.167 72.1768C121.59 72.7545 120.905 73.2131 120.15 73.526C119.394 73.8389 118.584 74 117.766 74C116.948 74 116.137 73.8389 115.382 73.526C114.627 73.2131 113.941 72.7545 113.365 72.1768L80.5766 39.5092L60.1846 59.8494C59.6083 60.4271 58.9228 60.8857 58.1675 61.1986C57.4122 61.5115 56.6021 61.6726 55.7838 61.6726C54.9656 61.6726 54.1554 61.5115 53.4001 61.1986C52.6448 60.8857 51.9593 60.4271 51.3831 59.8494L12.3964 21.0182V36.9821C12.3964 38.6168 11.7434 40.1846 10.581 41.3405C9.41861 42.4964 7.84207 43.1458 6.1982 43.1458C4.55434 43.1458 2.97779 42.4964 1.81541 41.3405C0.653015 40.1846 0 38.6168 0 36.9821V6.16369C0.00978851 5.35823 0.178253 4.5625 0.495857 3.82149Z" fill="#4775A6"/>
</svg>
