<svg width="100" height="97" viewBox="0 0 100 97" fill="none" xmlns="http://www.w3.org/2000/svg">
<path d="M18.8205 33.1873H27.9704L50.4199 55.627C49.6467 57.5975 49.5756 59.7742 50.2185 61.791C50.8615 63.8078 52.1793 65.5418 53.9503 66.7012C55.7214 67.8607 57.8376 68.375 59.9432 68.1576C62.0489 67.9402 64.0154 67.0045 65.5123 65.5076C67.0091 64.0108 67.9448 62.0443 68.1622 59.9386C68.3796 57.833 67.8653 55.7167 66.7058 53.9457C65.5464 52.1747 63.8125 50.8569 61.7956 50.2139C59.7788 49.571 57.6021 49.6421 55.6316 50.4153L33.187 27.9707V18.8208C33.1865 17.5964 32.7002 16.4223 31.8349 15.5561L23.3291 7.05031C23.1717 6.89188 22.9741 6.77934 22.7575 6.72476C22.5409 6.67019 22.3136 6.67565 22.0999 6.74056C21.6623 6.86839 21.3378 7.23222 21.2493 7.67964L18.9877 18.9929L7.67933 21.2546C7.23683 21.3431 6.87299 21.6676 6.74516 22.1051C6.6806 22.3177 6.67485 22.5438 6.72852 22.7594C6.7822 22.9749 6.8933 23.1719 7.05 23.3294L15.5607 31.8352C16.4257 32.6994 17.5978 33.1855 18.8205 33.1873Z" fill="#4775A6" fill-opacity="0.96"/>
<path d="M105.094 59C105.094 71.2248 100.237 82.949 91.5932 91.5932C82.9489 100.237 71.2248 105.094 59 105.094C52.9469 105.094 46.953 103.902 41.3607 101.585C35.7683 99.2687 30.687 95.8734 26.4068 91.5932C22.1266 87.313 18.7314 82.2317 16.4149 76.6393C14.0985 71.047 12.9062 65.0531 12.9062 59C12.9062 54.5849 13.5258 50.3172 14.6812 46.2806C14.9108 45.3538 14.772 44.374 14.294 43.5474C13.8159 42.7208 13.0358 42.112 12.1179 41.8489C11.2 41.5858 10.2158 41.689 9.37247 42.1369C8.52913 42.5847 7.8924 43.3422 7.59625 44.25C6.24908 48.9405 5.53125 53.8867 5.53125 59C5.53125 88.5295 29.4705 112.469 59 112.469C88.5295 112.469 112.469 88.5295 112.469 59C112.469 29.4705 88.5295 5.53128 59 5.53128C54.0096 5.52636 49.0487 6.21961 44.25 7.59136C43.7821 7.72261 43.3448 7.94504 42.9632 8.24587C42.5815 8.54669 42.2631 8.91999 42.0262 9.34428C41.7894 9.76858 41.6387 10.2355 41.5829 10.7182C41.527 11.201 41.5672 11.69 41.701 12.1571C41.8348 12.6243 42.0596 13.0604 42.3625 13.4404C42.6654 13.8204 43.0404 14.1367 43.466 14.3713C43.8916 14.6058 44.3593 14.754 44.8424 14.8072C45.3254 14.8603 45.8142 14.8175 46.2806 14.6812C50.4171 13.5005 54.6983 12.9031 59 12.9063C71.2248 12.9063 82.9489 17.7626 91.5932 26.4068C100.237 35.0511 105.094 46.7752 105.094 59Z" fill="#4775A6" fill-opacity="0.96"/>
<path d="M82.969 59.0009C82.9552 62.2573 82.278 65.4768 80.9785 68.4627C79.679 71.4487 77.7845 74.1384 75.4108 76.3678C73.0371 78.5971 70.2339 80.3193 67.1724 81.4291C64.1109 82.5389 60.8554 83.0132 57.6045 82.8228C54.3536 82.6324 51.1756 81.7815 48.2646 80.3219C45.3535 78.8624 42.7705 76.8248 40.6732 74.3336C38.5759 71.8425 37.0084 68.95 36.0663 65.8328C35.1242 62.7156 34.8273 59.4391 35.1937 56.2033C35.297 55.548 35.221 54.877 34.9739 54.2613C34.7268 53.6456 34.3178 53.1082 33.7902 52.7061C33.2625 52.3039 32.636 52.052 31.9768 51.9769C31.3177 51.9019 30.6505 52.0066 30.046 52.2798C28.8119 52.8305 27.981 54.0056 27.8728 55.3528C27.1094 61.8194 28.3796 68.3632 31.5068 74.0746C34.634 79.7861 39.4628 84.3814 45.3222 87.2219C51.1815 90.0623 57.7802 91.0068 64.2011 89.924C70.622 88.8412 76.546 85.7849 81.1498 81.18C85.7523 76.5801 88.8093 70.662 89.8969 64.2464C90.9845 57.8308 90.0487 51.2358 87.2193 45.3761C84.3899 39.5163 79.8072 34.6822 74.1067 31.5442C68.4063 28.4062 61.8706 27.1199 55.4061 27.8637C54.9174 27.909 54.4427 28.0515 54.0098 28.2827C53.5769 28.5138 53.1944 28.8291 52.8849 29.21C52.5754 29.5909 52.3451 30.0298 52.2074 30.5009C52.0697 30.972 52.0274 31.4658 52.0831 31.9534C52.1387 32.441 52.2911 32.9127 52.5314 33.3406C52.7717 33.7686 53.0949 34.1443 53.4823 34.4457C53.8696 34.7471 54.3132 34.9681 54.7871 35.0958C55.261 35.2236 55.7556 35.2554 56.242 35.1895C59.5999 34.8013 63.002 35.1276 66.2249 36.147C69.4479 37.1664 72.4188 38.8558 74.9428 41.1044C77.4667 43.353 79.4866 46.11 80.8698 49.1943C82.2531 52.2786 82.9685 55.6206 82.969 59.0009Z" fill="#4775A6" fill-opacity="0.96"/>
</svg>
