<svg width="92" height="95" viewBox="0 0 92 95" fill="none" xmlns="http://www.w3.org/2000/svg">
<path d="M18.2298 67.7077L26.0423 67.7077L26.0423 88.541C26.0423 91.3037 27.1398 93.9532 29.0933 95.9067C31.0468 97.8602 33.6963 98.9577 36.459 98.9577L57.2923 98.9577L57.2923 106.77C57.2923 110.224 58.6642 113.535 61.106 115.977C63.5479 118.419 66.8598 119.791 70.3131 119.791C73.7665 119.791 77.0784 118.419 79.5203 115.977C81.9622 113.535 83.334 110.224 83.334 106.77L83.334 98.9577L104.167 98.9577C106.93 98.9577 109.58 97.8602 111.533 95.9067C113.487 93.9532 114.584 91.3037 114.584 88.541L114.584 68.7494L106.771 68.7494C98.959 68.7494 92.709 62.4993 92.709 54.6868C92.709 46.8743 98.959 40.6244 106.771 40.6244L114.584 40.6244L114.584 20.8327C114.584 18.07 113.487 15.4205 111.533 13.467C109.58 11.5135 106.93 10.416 104.167 10.416L84.3757 10.416L84.3757 18.2285C84.3757 26.041 78.1257 32.291 70.3132 32.291C62.5007 32.291 56.2507 26.041 56.2507 18.2285L56.2507 10.416L36.459 10.416C33.6963 10.416 31.0468 11.5135 29.0933 13.467C27.1398 15.4205 26.0423 18.07 26.0423 20.8327L26.0423 41.666L18.2298 41.666C14.7765 41.666 11.4646 43.0378 9.0227 45.4797C6.58082 47.9216 5.20899 51.2335 5.20899 54.6868C5.20899 58.1402 6.58082 61.4521 9.0227 63.894C11.4646 66.3358 14.7765 67.7077 18.2298 67.7077Z" fill="#4775A6"/>
</svg>
