<?xml version="1.0" encoding="utf-8"?>
<!-- Generator: Adobe Illustrator 25.4.1, SVG Export Plug-In . SVG Version: 6.00 Build 0)  -->
<svg version="1.1" id="Layer_1" xmlns="http://www.w3.org/2000/svg" xmlns:xlink="http://www.w3.org/1999/xlink" x="0px" y="0px"
	 viewBox="0 0 267.2 336.4" style="enable-background:new 0 0 267.2 336.4;" xml:space="preserve">
<style type="text/css">
	.st0{fill:#FFFFFF;}
	.st1{fill:#F5D700;}
</style>
<g>
	<path class="st0" d="M46.8,295.3h-2.1v-32.1h18.8v1.9H46.8V295.3z"/>
	<path class="st0" d="M89.5,291.3c-3.1-3.2-4.7-7.2-4.7-12c0-4.8,1.6-8.8,4.7-12c3.1-3.1,7.1-4.7,12-4.7c4.9,0,8.9,1.6,12,4.7
		c3.2,3.1,4.8,7.1,4.8,12s-1.6,8.9-4.8,12c-3.1,3.1-7.1,4.7-12,4.7C96.6,296,92.6,294.4,89.5,291.3z M101.5,264.5
		c-4.3,0-7.8,1.4-10.5,4.1c-2.7,2.8-4.1,6.3-4.1,10.6c0,4.3,1.4,7.9,4.1,10.6c2.7,2.8,6.2,4.1,10.5,4.1c4.3,0,7.8-1.4,10.5-4.1
		c2.7-2.8,4.1-6.3,4.1-10.6c0-4.3-1.4-7.9-4.1-10.6C109.3,265.9,105.8,264.5,101.5,264.5z"/>
	<path class="st0" d="M141.9,303.7H140v-10.3h4c1.2-1.6,2.4-4.2,3.5-7.9c1.1-3.7,1.8-7.9,2.1-12.7l0.5-9.6h19.5v30.2h5.4v10.3h-1.9
		v-8.4h-31V303.7z M151.9,265.1l-0.5,8.4c-0.4,4.8-1.1,9-2.2,12.6c-1.1,3.7-2.2,6.1-3.2,7.4h21.3v-28.3H151.9z"/>
	<path class="st0" d="M201.6,267.2l-0.6-1.7c3.1-2,6.4-2.9,10-2.9c4.1,0,7.1,1,8.9,3.1c1.8,2.1,2.8,5.3,2.8,9.6v20.1h-2v-5.6
		c-3,4-7,5.9-12,5.9c-3,0-5.5-0.8-7.3-2.5c-1.9-1.7-2.8-3.9-2.8-6.7c0-3,1.1-5.4,3.4-7.2c2.3-1.7,5.2-2.6,8.9-2.6
		c4,0,7.3,0.9,9.8,2.6c0-2.1,0-3.5-0.1-4.2c-0.1-3.1-0.5-5.3-1.3-6.6c-1.5-2.7-4.4-4.1-8.5-4.1C207.7,264.5,204.7,265.4,201.6,267.2
		z M208.9,293.8c1.9,0,3.7-0.3,5.5-1c1.5-0.7,2.6-1.3,3.4-2c0.8-0.7,1.7-1.7,2.7-3.1v-6.4c-2.6-1.9-5.9-2.9-9.7-2.9
		c-2.8,0-5.2,0.7-7.3,2c-2,1.4-3,3.4-3,5.9c0,2.2,0.8,4,2.3,5.4C204.4,293.1,206.5,293.8,208.9,293.8z"/>
</g>
<path class="st0" d="M68.1,102.1h-7.6V69.4h7.7l10.3,13.8l9.7-13.8h7.2v32.7h-7.6V81.3L78.4,94h-1.1l-9.3-12.6V102.1z"/>
<path class="st0" d="M74.1,189h-10v-7h27.7v7h-10v25.7h-7.6V189z"/>
<rect x="153.6" y="137.6" class="st1" width="22.6" height="7"/>
<rect x="94.4" y="137.3" class="st1" width="23.6" height="7"/>
<polygon class="st1" points="58.6,144.6 33.8,144.6 33.8,32.7 232.9,32.7 232.9,39.7 40.8,39.7 40.8,137.6 58.6,137.6 "/>
<polygon class="st1" points="233.4,249.4 34.4,249.4 34.4,242.4 226.4,242.4 226.4,144.6 211.5,144.6 211.5,137.6 233.4,137.6 "/>
<path class="st1" d="M65.8,153.4V129L86,141.2L65.8,153.4z"/>
<path class="st1" d="M146.6,131h-20.7v20.1h20.7V131z"/>
<path class="st0" d="M127.6,102.1H120l13.9-32.7h6.8l13.9,32.7h-8.2l-2.8-6.9h-13.2L127.6,102.1z M140.8,88.2L137,79l-3.8,9.3H140.8
	z"/>
<path class="st0" d="M146.4,214.6h-20.3v-32.7h19.8v7h-12.2v5.7h10.7v7h-10.7v5.9h12.6V214.6z"/>
<path class="st1" d="M194.3,152.4c6.4,0,11.6-5.1,11.6-11.3c0-6.3-5.2-11.3-11.6-11.3s-11.6,5.1-11.6,11.3
	C182.6,147.4,187.8,152.4,194.3,152.4z"/>
<path class="st0" d="M204.5,93.3l2.9,5.6c-1,1.1-2.5,2-4.5,2.8c-2,0.7-4.1,1-6.3,1c-5.2,0-9.4-1.5-12.6-4.6
	c-3.2-3.1-4.9-7.2-4.9-12.3c0-4.9,1.5-9,4.6-12.1c3.1-3.2,7.3-4.8,12.9-4.8c2.1,0,4.1,0.3,5.9,0.9c1.8,0.6,3.3,1.4,4.3,2.5l-3.4,5.6
	c-2.2-1.3-4.5-2-6.8-2c-2.7,0-4.9,0.9-6.7,2.6c-1.8,1.7-2.6,4.1-2.6,7.3c0,2.9,0.9,5.2,2.8,7.1c1.9,1.8,4.3,2.8,7.3,2.8
	C200,95.7,202.4,94.9,204.5,93.3z"/>
<path class="st0" d="M191,203.6v11.1h-7.6V182c1.5,0,3.1,0,4.8,0c1.8,0,3.6,0,5.4,0c4.7,0,8.1,1,10.3,3.1c2.1,2,3.2,4.6,3.2,7.8
	c0,3.1-1.1,5.7-3.4,7.8c-2.3,2.1-5.2,3.2-9,3.2C193.1,203.7,191.9,203.7,191,203.6z M194.4,188.9c0,0-0.2,0-0.4,0
	c-0.3,0-0.7,0-1.2,0c-0.5,0-1.1,0-1.7,0v7.5c1.3,0.2,2.5,0.2,3.5,0.2c1.3,0,2.4-0.3,3.2-1s1.3-1.7,1.3-3
	C199,190.2,197.5,188.9,194.4,188.9z"/>
</svg>
