        <svg width="391" height="508" viewBox="0 0 391 508" fill="none" xmlns="http://www.w3.org/2000/svg">
            <g clip-path="url(#clip0_1_78)">
                <path d="M25.4659 497.254H21.3522V437.081H58.1798V440.643H25.4659V497.254Z" fill="#1D1E1C" />
                <path d="M109.112 489.756C103.039 483.757 99.9048 476.259 99.9048 467.261C99.9048 458.263 103.039 450.765 109.112 444.767C115.184 438.956 123.02 435.956 132.619 435.956C142.217 435.956 150.053 438.956 156.126 444.767C162.394 450.578 165.529 458.076 165.529 467.261C165.529 476.446 162.394 483.945 156.126 489.756C150.053 495.567 142.217 498.566 132.619 498.566C123.02 498.566 115.184 495.567 109.112 489.756ZM132.619 439.518C124.195 439.518 117.339 442.142 112.05 447.204C106.761 452.452 104.019 459.013 104.019 467.074C104.019 475.134 106.761 481.883 112.05 486.944C117.339 492.193 124.195 494.629 132.619 494.629C141.042 494.629 147.898 492.005 153.187 486.944C158.476 481.695 161.219 475.134 161.219 467.074C161.219 459.013 158.476 452.265 153.187 447.204C147.898 442.142 141.042 439.518 132.619 439.518Z" fill="#1D1E1C" />
                <path d="M211.759 513H208.037V493.692H215.873C218.223 490.693 220.574 485.819 222.729 478.883C224.884 471.948 226.255 464.074 226.843 455.077L227.822 437.081H266.021V493.692H276.599V513H272.877V497.254H212.151V513H211.759ZM231.348 440.643L230.369 456.389C229.585 465.387 228.214 473.26 226.059 480.008C223.904 486.944 221.749 491.443 219.791 493.88H261.516V440.83H231.348V440.643Z" fill="#1D1E1C" />
                <path d="M328.706 444.579L327.531 441.393C333.604 437.643 340.068 435.956 347.12 435.956C355.152 435.956 361.028 437.831 364.555 441.768C368.081 445.704 370.039 451.703 370.039 459.763V497.441H366.122V486.944C360.245 494.442 352.409 498.004 342.615 498.004C336.738 498.004 331.841 496.504 328.315 493.317C324.593 490.131 322.83 486.007 322.83 480.758C322.83 475.134 324.984 470.635 329.49 467.261C333.995 464.074 339.676 462.387 346.924 462.387C354.76 462.387 361.224 464.074 366.122 467.261C366.122 463.325 366.122 460.7 365.926 459.388C365.73 453.577 364.946 449.453 363.379 447.016C360.441 441.955 354.76 439.331 346.728 439.331C340.656 439.518 334.779 441.205 328.706 444.579ZM343.006 494.442C346.728 494.442 350.254 493.88 353.78 492.567C356.719 491.255 358.874 490.131 360.441 488.818C362.008 487.506 363.771 485.632 365.73 483.007V471.01C360.637 467.449 354.172 465.574 346.728 465.574C341.243 465.574 336.542 466.886 332.428 469.323C328.51 471.948 326.552 475.697 326.552 480.383C326.552 484.507 328.119 487.881 331.057 490.506C334.191 493.13 338.305 494.442 343.006 494.442Z" fill="#1D1E1C" />
                <path d="M67.1909 135.093H52.3031V73.7956H67.3868L87.5636 99.6642L106.565 73.7956H120.669V135.093H105.782V96.1026L87.3677 119.909H85.2129L66.995 96.2901L67.1909 135.093Z" fill="#1D1E1C" />
                <path d="M78.9444 297.99H59.3552V284.869H113.617V297.99H94.0281V346.166H79.1403V297.99H78.9444Z" fill="#1D1E1C" />
                <path d="M278.95 201.639H234.678V214.761H278.95V201.639Z" fill="#F5D700" />
                <path d="M164.941 201.077H118.71V214.199H164.941V201.077Z" fill="#F5D700" />
                <path d="M48.5812 214.761H0V5H390.021V18.1218H13.7124V201.639H48.5812V214.761Z" fill="#F5D700" />
                <path d="M391 411.213H1.17542V398.091H377.288V214.761H348.1V201.639H391V411.213Z" fill="#F5D700" />
                <path d="M62.6854 231.257V185.518L102.256 208.387L62.6854 231.257Z" fill="#F5D700" />
                <path d="M220.966 189.267H180.416V226.945H220.966V189.267Z" fill="#F5D700" />
                <path d="M183.746 135.093H168.859L196.088 73.7956H209.408L236.637 135.093H220.574L215.089 122.159H189.231L183.746 135.093ZM209.604 109.037L202.16 91.7912L194.716 109.224H209.604V109.037Z" fill="#1D1E1C" />
                <path d="M220.574 345.979H180.808V284.681H219.595V297.803H195.696V308.488H216.656V321.61H195.696V332.669H220.378L220.574 345.979Z" fill="#1D1E1C" />
                <path d="M314.406 229.382C326.943 229.382 337.13 219.822 337.13 208.2C337.13 196.39 326.943 187.018 314.406 187.018C301.869 187.018 291.683 196.578 291.683 208.2C291.487 220.01 301.673 229.382 314.406 229.382Z" fill="#F5D700" />
                <path d="M334.387 118.597L340.068 129.094C338.109 131.156 335.171 132.844 331.253 134.343C327.335 135.655 323.221 136.218 318.912 136.218C308.725 136.218 300.498 133.406 294.229 127.595C287.961 121.784 284.631 114.098 284.631 104.538C284.631 95.3527 287.569 87.6671 293.642 81.8561C299.714 75.8575 307.942 72.8583 318.912 72.8583C323.026 72.8583 326.943 73.4206 330.469 74.5454C333.995 75.6701 336.934 77.1697 338.893 79.2317L332.232 89.7291C327.923 87.2922 323.417 85.98 318.912 85.98C313.623 85.98 309.313 87.6671 305.787 90.8538C302.261 94.0406 300.694 98.5395 300.694 104.538C300.694 109.974 302.457 114.286 306.179 117.847C309.901 121.221 314.602 123.096 320.479 123.096C325.572 123.096 330.274 121.596 334.387 118.597Z" fill="#1D1E1C" />
                <path d="M307.942 325.359V346.166H293.054V284.869C295.992 284.869 299.127 284.869 302.457 284.869C305.983 284.869 309.509 284.869 313.035 284.869C322.242 284.869 328.902 286.743 333.212 290.68C337.326 294.429 339.48 299.303 339.48 305.301C339.48 311.112 337.326 315.986 332.82 319.923C328.315 323.859 322.634 325.921 315.19 325.921C312.056 325.546 309.705 325.546 307.942 325.359ZM314.602 297.803C314.602 297.803 314.21 297.803 313.819 297.803C313.231 297.803 312.447 297.803 311.468 297.803C310.488 297.803 309.313 297.803 308.138 297.803V311.862C310.684 312.237 313.035 312.237 314.994 312.237C317.541 312.237 319.695 311.675 321.263 310.362C322.83 309.05 323.809 307.176 323.809 304.739C323.613 300.24 320.675 297.803 314.602 297.803Z" fill="#1D1E1C" />
            </g>
            <defs>
                <clipPath id="clip0_1_78">
                    <rect width="391" height="508" fill="white" />
                </clipPath>
            </defs>
        </svg>